<svg width="118" height="32" viewBox="0 0 118 32" fill="none" xmlns="http://www.w3.org/2000/svg">
    <g clip-path="url(#clip0_1_2003)">
        <path d="M25.0274 15.5626C24.9135 15.32 24.6665 15.163 24.3956 15.1648L18.443 15.171C17.7262 15.1716 17.5064 14.7148 17.9541 14.1551L20.7583 10.653C20.9153 10.4572 20.9455 10.1475 20.8316 9.90681C20.7176 9.66361 20.4701 9.50722 20.1998 9.50907L12.092 9.53493C11.6455 9.53616 11.3721 9.18398 11.4848 8.75177L13.4467 1.24155C13.5372 0.904145 13.3568 0.571056 13.0686 0.433756C12.8703 0.328473 12.6492 0.332783 12.4448 0.426984C12.3438 0.474392 12.2705 0.532267 12.1893 0.620311L0.145489 15.6912C-0.0115319 15.887 -0.0497095 16.1752 0.0728281 16.4375C0.186745 16.68 0.433667 16.837 0.704605 16.8352L6.65722 16.829C7.37397 16.8284 7.5938 17.2853 7.14614 17.8449L4.34194 21.347C4.18492 21.5428 4.15474 21.8525 4.26866 22.0932C4.38258 22.3364 4.63012 22.4928 4.90044 22.491L13.0082 22.4651C13.4547 22.4639 13.7281 22.816 13.6154 23.2483L11.6536 30.7585C11.563 31.0959 11.7435 31.429 12.0316 31.5663C12.2299 31.6715 12.451 31.6672 12.6554 31.573C12.7564 31.5256 12.8297 31.4678 12.9109 31.3797L24.9547 16.3088C25.1117 16.113 25.1499 15.8248 25.0274 15.5626Z"
              fill="#3FE8BD"/>
    </g>
    <g clip-path="url(#clip1_1_2003)">
        <path d="M35.0507 22.5246C33.8808 22.5246 32.8609 22.3433 31.9936 21.9796C31.1262 21.616 30.4493 21.0746 29.9653 20.3545C29.4805 19.6345 29.2255 18.7429 29.1995 17.6798H32.1642C32.2028 18.1683 32.3464 18.5795 32.5933 18.9135C32.8402 19.2475 33.1715 19.4962 33.5881 19.6614C34.0039 19.8266 34.4824 19.9092 35.022 19.9092C35.5616 19.9092 35.9953 19.8338 36.3823 19.6811C36.7692 19.5294 37.0682 19.3166 37.2792 19.0419C37.4902 18.768 37.5961 18.4493 37.5961 18.0857C37.5961 17.7553 37.5001 17.4778 37.3088 17.2534C37.1167 17.0289 36.8375 16.8377 36.4702 16.6787C36.103 16.5198 35.6559 16.378 35.1289 16.2523L33.5388 15.8563C32.3159 15.5591 31.3507 15.0851 30.6423 14.4341C29.9339 13.7832 29.5793 12.9132 29.5793 11.8232C29.5793 10.9316 29.8181 10.1505 30.2957 9.47978C30.7734 8.80909 31.427 8.28744 32.2557 7.91393C33.0863 7.54222 34.0299 7.35547 35.0903 7.35547C36.1506 7.35547 37.1104 7.54402 37.914 7.92022C38.7167 8.29641 39.3443 8.81896 39.7959 9.48606C40.2475 10.1532 40.48 10.9226 40.4935 11.7944H37.5387C37.4866 11.2198 37.2442 10.7709 36.8123 10.4468C36.3796 10.1235 35.796 9.96103 35.0615 9.96103C34.5677 9.96103 34.1466 10.032 33.7982 10.1738C33.4499 10.3157 33.185 10.5123 33.0036 10.7637C32.8214 11.0151 32.7307 11.3024 32.7307 11.6256C32.7307 11.9695 32.8349 12.2586 33.0432 12.493C33.2515 12.7273 33.5289 12.9194 33.8773 13.0676C34.2247 13.2166 34.6072 13.3396 35.0229 13.4393L36.3203 13.7661C36.9506 13.9116 37.5324 14.1046 38.0657 14.3461C38.599 14.5876 39.0623 14.883 39.4556 15.2332C39.8489 15.5834 40.1532 15.9946 40.3678 16.4668C40.5824 16.9391 40.6892 17.4823 40.6892 18.0964C40.6892 19.0015 40.4666 19.7853 40.0212 20.4497C39.5759 21.1132 38.9339 21.6259 38.0954 21.985C37.2568 22.3451 36.2422 22.5246 35.0525 22.5246H35.0507Z"
              fill="#1F262B"/>
        <path d="M43.7599 22.315L40.7952 11.2383H43.8577L45.5448 18.6886H45.6427L47.4078 11.2383H50.4022L52.1871 18.6393H52.2849L53.9433 11.2383H56.996L54.0313 22.315H50.8421L48.9692 15.3495H48.8327L46.9598 22.315H43.7608H43.7599Z"
              fill="#1F262B"/>
        <path d="M60.2026 22.524C59.5131 22.524 58.8945 22.4001 58.345 22.1523C57.7955 21.9045 57.3645 21.5364 57.053 21.0479C56.7405 20.5595 56.5852 19.9517 56.5852 19.2253C56.5852 18.6049 56.6956 18.0877 56.9165 17.6747C57.1374 17.2617 57.44 16.9268 57.8233 16.6691C58.2067 16.4114 58.6422 16.2166 59.1306 16.0846C59.6181 15.9526 60.1353 15.8602 60.6812 15.8072C61.3115 15.7479 61.8188 15.6887 62.203 15.6285C62.5864 15.5693 62.8675 15.4786 63.047 15.3565C63.2257 15.2344 63.3155 15.0575 63.3155 14.8267V14.7774C63.3155 14.3212 63.1736 13.9684 62.8908 13.717C62.608 13.4665 62.2093 13.3408 61.6958 13.3408C61.1562 13.3408 60.7252 13.4611 60.4038 13.7026C60.0823 13.9442 59.8686 14.2494 59.7654 14.6193L56.9668 14.3913C57.1095 13.7179 57.3897 13.1343 57.8054 12.6423C58.2211 12.1503 58.7598 11.7705 59.4197 11.5029C60.0796 11.2353 60.8455 11.1016 61.7164 11.1016C62.3207 11.1016 62.8998 11.1743 63.452 11.3197C64.0041 11.4652 64.4971 11.6879 64.9298 11.9886C65.3617 12.2894 65.7056 12.6773 65.9588 13.1531C66.2119 13.629 66.3394 14.1938 66.3394 14.8474V22.3175H63.4627V20.7723H63.3846C63.2086 21.1225 62.9752 21.4277 62.6825 21.689C62.3898 21.9503 62.0387 22.155 61.6293 22.3031C61.2199 22.4513 60.7449 22.5258 60.2053 22.5258L60.2026 22.524ZM61.0709 20.4033C61.5126 20.4033 61.905 20.3126 62.2461 20.1312C62.5873 19.9499 62.854 19.7048 63.0461 19.3977C63.2383 19.0906 63.3334 18.7459 63.3334 18.3625V17.1836C63.2419 17.2429 63.1144 17.2994 62.9483 17.3524C62.7822 17.4054 62.599 17.4512 62.397 17.4907C62.195 17.5302 61.9938 17.5652 61.7927 17.5948C61.5907 17.6244 61.4094 17.6532 61.2468 17.6792C60.8895 17.7322 60.577 17.8166 60.3104 17.9315C60.0437 18.0473 59.8372 18.2027 59.6909 18.3975C59.5445 18.5923 59.4718 18.8347 59.4718 19.1256C59.4718 19.5413 59.6217 19.8592 59.9207 20.0765C60.2197 20.2946 60.6031 20.4033 61.0718 20.4033H61.0709Z"
              fill="#1F262B"/>
        <path d="M68.8662 26.4568C68.4829 26.4631 68.1237 26.4371 67.7888 26.3778C67.4539 26.3186 67.1792 26.2422 66.9646 26.1498L67.647 23.8611L67.7448 23.8809C68.2521 24.0326 68.6858 24.0676 69.0467 23.985C69.4076 23.9024 69.6824 23.6097 69.8709 23.1078L70.0469 22.632L66.1458 11.2383H69.3152L71.5679 19.3728H71.6846L73.9669 11.2383H77.1561L72.9236 23.5137C72.7216 24.1081 72.4469 24.627 72.0994 25.0688C71.751 25.5114 71.3147 25.8535 70.7876 26.0941C70.2606 26.3347 69.6204 26.4559 68.8662 26.4559V26.4568Z"
              fill="#1F262B"/>
        <path d="M80.4646 7.55371V22.3161H77.4514V7.55371H80.4646Z" fill="#1F262B"/>
        <path d="M86.722 22.5337C85.6033 22.5337 84.6381 22.303 83.8256 21.8406C83.013 21.3782 82.3899 20.7192 81.9581 19.8635C81.5253 19.0079 81.3098 17.996 81.3098 16.827C81.3098 15.658 81.5262 14.6937 81.9581 13.8345C82.3908 12.9761 83.0014 12.3054 83.7915 11.8233C84.5816 11.3411 85.5091 11.0996 86.5757 11.0996C87.2976 11.0996 87.9701 11.2172 88.5941 11.4516C89.2181 11.6859 89.7649 12.0361 90.2326 12.5021C90.7004 12.968 91.0649 13.5525 91.3253 14.2555C91.5857 14.9586 91.7159 15.7828 91.7159 16.7273V17.5596H82.5093V15.667H90.2533L88.8491 16.1626C88.8491 15.6014 88.7647 15.1121 88.5959 14.6964C88.4271 14.2807 88.1748 13.9584 87.8399 13.7303C87.505 13.5023 87.0902 13.3882 86.5964 13.3882C86.1025 13.3882 85.6841 13.504 85.343 13.7348C85.0018 13.9664 84.7396 14.2798 84.5582 14.6757C84.376 15.0717 84.2853 15.5278 84.2853 16.0432V17.381C84.2853 17.9825 84.3894 18.4952 84.5977 18.9217C84.806 19.3482 85.0969 19.675 85.4704 19.9021C85.8439 20.1302 86.2749 20.2442 86.7625 20.2442C87.1 20.2442 87.4062 20.1948 87.6792 20.0952C87.9521 19.9955 88.1882 19.8509 88.3867 19.6597C88.5851 19.4685 88.7332 19.2368 88.8302 18.9666L91.6198 19.1551C91.4833 19.8357 91.1987 20.4283 90.7669 20.9338C90.3341 21.4392 89.7765 21.8325 89.0942 22.1126C88.4118 22.3928 87.6217 22.5337 86.7238 22.5337H86.722Z"
              fill="#1F262B"/>
        <path d="M95.5691 15.9149V22.3156H92.5559V11.2389H95.5206V13.2105H95.6274C95.8744 12.5569 96.2676 12.0415 96.8072 11.6653C97.3468 11.2891 98.0229 11.1006 98.8355 11.1006C99.5897 11.1006 100.248 11.2694 100.811 11.6061C101.373 11.9428 101.81 12.4222 102.122 13.0426C102.435 13.6639 102.59 14.4065 102.59 15.272V22.3165H99.5771V15.817C99.5771 15.1436 99.4047 14.613 99.0599 14.2269C98.7152 13.8408 98.2411 13.6469 97.6359 13.6469C97.2328 13.6469 96.8755 13.7376 96.563 13.9189C96.2506 14.1003 96.0072 14.3598 95.8313 14.6965C95.6553 15.0332 95.5682 15.4399 95.5682 15.9149H95.5691Z"
              fill="#1F262B"/>
        <path d="M107.809 22.4948C106.977 22.4948 106.226 22.2766 105.557 21.8412C104.887 21.4048 104.357 20.7629 103.967 19.9144C103.577 19.0659 103.381 18.0271 103.381 16.798C103.381 15.5688 103.582 14.4734 103.985 13.6277C104.388 12.7819 104.925 12.1498 105.594 11.7305C106.264 11.3112 106.995 11.1011 107.789 11.1011C108.4 11.1011 108.91 11.2053 109.319 11.4136C109.729 11.6219 110.061 11.8813 110.314 12.1911C110.567 12.5018 110.76 12.8088 110.89 13.1123H110.978V7.55371H114.001V22.3161H111.026V20.5429H110.89C110.753 20.8464 110.555 21.1489 110.295 21.4497C110.034 21.7505 109.701 21.9992 109.295 22.1976C108.889 22.3961 108.393 22.4948 107.808 22.4948H107.809ZM108.756 20.0572C109.243 20.0572 109.658 19.9198 109.999 19.6459C110.34 19.3721 110.601 18.9905 110.779 18.5012C110.958 18.0128 111.048 17.4408 111.048 16.7872C111.048 16.1336 110.96 15.5535 110.785 15.0678C110.61 14.5821 110.349 14.2059 110.005 13.9383C109.66 13.6708 109.244 13.537 108.757 13.537C108.269 13.537 107.846 13.6752 107.509 13.9527C107.17 14.2301 106.913 14.6117 106.738 15.0974C106.562 15.5832 106.475 16.1461 106.475 16.7863C106.475 17.4265 106.563 17.9939 106.738 18.4859C106.914 18.9779 107.172 19.3631 107.514 19.6406C107.855 19.918 108.27 20.0563 108.757 20.0563L108.756 20.0572Z"
              fill="#1F262B"/>
    </g>
    <defs>
        <clipPath id="clip0_1_2003">
            <rect width="25.0999" height="31.2889" fill="white" transform="translate(0 0.35556)"/>
        </clipPath>
        <clipPath id="clip1_1_2003">
            <rect width="88" height="23" fill="white" transform="translate(29.0999 4.5)"/>
        </clipPath>
    </defs>
</svg>
