<svg width="25" height="31" viewBox="0 0 25 31" fill="none" xmlns="http://www.w3.org/2000/svg">
<g clip-path="url(#clip0_603_7514)">
<path d="M24.9275 15.0666C24.8141 14.8263 24.5681 14.6707 24.2983 14.6725L18.3694 14.6786C17.6555 14.6792 17.4365 14.2266 17.8824 13.6721L20.6754 10.2024C20.8318 10.0084 20.8619 9.70157 20.7484 9.46306C20.6349 9.22211 20.3884 9.06716 20.1191 9.06899L12.0436 9.09461C11.599 9.09583 11.3266 8.74691 11.4389 8.31868L13.3929 0.877805C13.4831 0.54352 13.3034 0.213506 13.0163 0.0774739C12.8188 -0.0268375 12.5987 -0.0225675 12.395 0.0707638C12.2945 0.117734 12.2215 0.175075 12.1405 0.262306L0.144666 15.1941C-0.0117292 15.3881 -0.0497548 15.6736 0.0722951 15.9334C0.185759 16.1738 0.431698 16.3293 0.701558 16.3275L6.63049 16.3214C7.34439 16.3208 7.56334 16.7734 7.11746 17.3279L4.32442 20.7976C4.16802 20.9916 4.13797 21.2984 4.25143 21.5369C4.3649 21.7779 4.61145 21.9328 4.88069 21.931L12.9562 21.9054C13.4009 21.9042 13.6732 22.2531 13.561 22.6813L11.6069 30.1222C11.5168 30.4565 11.6965 30.7865 11.9835 30.9225C12.181 31.0268 12.4012 31.0226 12.6048 30.9292C12.7054 30.8823 12.7784 30.8249 12.8593 30.7377L24.8552 15.8059C25.0116 15.6119 25.0496 15.3265 24.9275 15.0666Z" fill="#3FE8BD"/>
</g>
<defs>
<clipPath id="clip0_603_7514">
<rect width="25" height="31" fill="white"/>
</clipPath>
</defs>
</svg>
