<svg width="118" height="32" viewBox="0 0 118 32" fill="none" xmlns="http://www.w3.org/2000/svg">
    <g clip-path="url(#clip0_414_28539)">
        <path d="M25.0271 15.5625C24.9132 15.3199 24.6663 15.1629 24.3954 15.1647L18.4427 15.1709C17.726 15.1715 17.5062 14.7147 17.9538 14.155L20.758 10.6529C20.9151 10.4571 20.9452 10.1475 20.8313 9.90671C20.7174 9.66352 20.4699 9.50713 20.1995 9.50898L12.0917 9.53484C11.6453 9.53607 11.3719 9.18389 11.4846 8.75167L13.4464 1.24145C13.5369 0.904054 13.3565 0.570964 13.0683 0.433665C12.8701 0.328381 12.649 0.332691 12.4446 0.426892C12.3436 0.4743 12.2703 0.532175 12.189 0.62022L0.145244 15.6911C-0.0117761 15.8869 -0.0499536 16.1751 0.0725839 16.4374C0.186501 16.68 0.433423 16.837 0.70436 16.8351L6.65698 16.8289C7.37373 16.8283 7.59356 17.2852 7.1459 17.8448L4.34169 21.3469C4.18467 21.5427 4.1545 21.8524 4.26842 22.0931C4.38233 22.3363 4.62987 22.4927 4.90019 22.4909L13.008 22.465C13.4544 22.4638 13.7278 22.8159 13.6151 23.2482L11.6533 30.7584C11.5628 31.0958 11.7432 31.4289 12.0314 31.5662C12.2297 31.6715 12.4507 31.6671 12.6552 31.5729C12.7561 31.5255 12.8294 31.4677 12.9107 31.3796L24.9545 16.3087C25.1115 16.1129 25.1497 15.8248 25.0271 15.5625Z"
              fill="#3FE8BD"/>
    </g>
    <g clip-path="url(#clip1_414_28539)">
        <path d="M35.0505 22.5246C33.8806 22.5246 32.8606 22.3433 31.9933 21.9796C31.126 21.616 30.449 21.0746 29.9651 20.3545C29.4802 19.6345 29.2253 18.7429 29.1992 17.6798H32.1639C32.2025 18.1683 32.3462 18.5795 32.5931 18.9135C32.84 19.2475 33.1713 19.4962 33.5879 19.6614C34.0036 19.8266 34.4822 19.9092 35.0218 19.9092C35.5614 19.9092 35.995 19.8338 36.382 19.6811C36.769 19.5294 37.068 19.3166 37.279 19.0419C37.49 18.768 37.5959 18.4493 37.5959 18.0857C37.5959 17.7553 37.4998 17.4778 37.3086 17.2534C37.1165 17.0289 36.8372 16.8377 36.47 16.6787C36.1028 16.5198 35.6557 16.378 35.1286 16.2523L33.5385 15.8563C32.3157 15.5591 31.3505 15.0851 30.6421 14.4341C29.9337 13.7832 29.579 12.9132 29.579 11.8232C29.579 10.9316 29.8178 10.1505 30.2955 9.47978C30.7731 8.80909 31.4268 8.28744 32.2555 7.91393C33.086 7.54222 34.0296 7.35547 35.09 7.35547C36.1504 7.35547 37.1102 7.54402 37.9137 7.92022C38.7164 8.29641 39.344 8.81896 39.7956 9.48606C40.2473 10.1532 40.4798 10.9226 40.4933 11.7944H37.5384C37.4864 11.2198 37.2439 10.7709 36.8121 10.4468C36.3793 10.1235 35.7957 9.96103 35.0613 9.96103C34.5675 9.96103 34.1464 10.032 33.798 10.1738C33.4496 10.3157 33.1848 10.5123 33.0034 10.7637C32.8211 11.0151 32.7305 11.3024 32.7305 11.6256C32.7305 11.9695 32.8346 12.2586 33.0429 12.493C33.2512 12.7273 33.5286 12.9194 33.877 13.0676C34.2245 13.2166 34.607 13.3396 35.0227 13.4393L36.3201 13.7661C36.9504 13.9116 37.5322 14.1046 38.0655 14.3461C38.5988 14.5876 39.0621 14.883 39.4553 15.2332C39.8486 15.5834 40.153 15.9946 40.3676 16.4668C40.5821 16.9391 40.689 17.4823 40.689 18.0964C40.689 19.0015 40.4663 19.7853 40.021 20.4497C39.5757 21.1132 38.9337 21.6259 38.0951 21.985C37.2565 22.3451 36.2419 22.5246 35.0523 22.5246H35.0505Z"
              fill="#E3E9F9"/>
        <path d="M43.7596 22.315L40.7949 11.2383H43.8575L45.5445 18.6886H45.6424L47.4076 11.2383H50.4019L52.1868 18.6393H52.2847L53.943 11.2383H56.9957L54.031 22.315H50.8419L48.9689 15.3495H48.8325L46.9596 22.315H43.7605H43.7596Z"
              fill="#E3E9F9"/>
        <path d="M60.2024 22.524C59.5128 22.524 58.8942 22.4001 58.3447 22.1523C57.7953 21.9045 57.3643 21.5364 57.0527 21.0479C56.7403 20.5595 56.585 19.9517 56.585 19.2253C56.585 18.6049 56.6954 18.0877 56.9163 17.6747C57.1371 17.2617 57.4397 16.9268 57.8231 16.6691C58.2065 16.4114 58.6419 16.2166 59.1304 16.0846C59.6179 15.9526 60.1351 15.8602 60.681 15.8072C61.3112 15.7479 61.8185 15.6887 62.2028 15.6285C62.5862 15.5693 62.8672 15.4786 63.0468 15.3565C63.2255 15.2344 63.3152 15.0575 63.3152 14.8267V14.7774C63.3152 14.3212 63.1734 13.9684 62.8906 13.717C62.6077 13.4665 62.2091 13.3408 61.6955 13.3408C61.1559 13.3408 60.7249 13.4611 60.4035 13.7026C60.0821 13.9442 59.8684 14.2494 59.7651 14.6193L56.9665 14.3913C57.1093 13.7179 57.3894 13.1343 57.8051 12.6423C58.2208 12.1503 58.7596 11.7705 59.4195 11.5029C60.0794 11.2353 60.8453 11.1016 61.7162 11.1016C62.3204 11.1016 62.8995 11.1743 63.4517 11.3197C64.0039 11.4652 64.4968 11.6879 64.9296 11.9886C65.3614 12.2894 65.7053 12.6773 65.9585 13.1531C66.2117 13.629 66.3392 14.1938 66.3392 14.8474V22.3175H63.4625V20.7723H63.3844C63.2084 21.1225 62.975 21.4277 62.6823 21.689C62.3896 21.9503 62.0385 22.155 61.6291 22.3031C61.2197 22.4513 60.7447 22.5258 60.2051 22.5258L60.2024 22.524ZM61.0706 20.4033C61.5124 20.4033 61.9047 20.3126 62.2459 20.1312C62.5871 19.9499 62.8537 19.7048 63.0459 19.3977C63.238 19.0906 63.3332 18.7459 63.3332 18.3625V17.1836C63.2416 17.2429 63.1141 17.2994 62.948 17.3524C62.7819 17.4054 62.5988 17.4512 62.3967 17.4907C62.1947 17.5302 61.9936 17.5652 61.7925 17.5948C61.5905 17.6244 61.4091 17.6532 61.2466 17.6792C60.8893 17.7322 60.5768 17.8166 60.3101 17.9315C60.0435 18.0473 59.837 18.2027 59.6906 18.3975C59.5443 18.5923 59.4715 18.8347 59.4715 19.1256C59.4715 19.5413 59.6215 19.8592 59.9205 20.0765C60.2195 20.2946 60.6028 20.4033 61.0715 20.4033H61.0706Z"
              fill="#E3E9F9"/>
        <path d="M68.866 26.4568C68.4826 26.4631 68.1235 26.4371 67.7886 26.3778C67.4537 26.3186 67.1789 26.2422 66.9643 26.1498L67.6467 23.8611L67.7446 23.8809C68.2519 24.0326 68.6855 24.0676 69.0465 23.985C69.4074 23.9024 69.6821 23.6097 69.8707 23.1078L70.0467 22.632L66.1455 11.2383H69.3149L71.5676 19.3728H71.6843L73.9667 11.2383H77.1558L72.9234 23.5137C72.7214 24.1081 72.4466 24.627 72.0991 25.0688C71.7508 25.5114 71.3144 25.8535 70.7874 26.0941C70.2604 26.3347 69.6202 26.4559 68.866 26.4559V26.4568Z"
              fill="#E3E9F9"/>
        <path d="M80.4644 7.55371V22.3161H77.4512V7.55371H80.4644Z" fill="#E3E9F9"/>
        <path d="M86.7218 22.5337C85.6031 22.5337 84.6379 22.303 83.8253 21.8406C83.0128 21.3782 82.3897 20.7192 81.9578 19.8635C81.5251 19.0079 81.3096 17.996 81.3096 16.827C81.3096 15.658 81.5259 14.6937 81.9578 13.8345C82.3906 12.9761 83.0011 12.3054 83.7912 11.8233C84.5813 11.3411 85.5088 11.0996 86.5755 11.0996C87.2973 11.0996 87.9698 11.2172 88.5938 11.4516C89.2178 11.6859 89.7646 12.0361 90.2324 12.5021C90.7002 12.968 91.0647 13.5525 91.3251 14.2555C91.5855 14.9586 91.7156 15.7828 91.7156 16.7273V17.5596H82.5091V15.667H90.253L88.8488 16.1626C88.8488 15.6014 88.7644 15.1121 88.5956 14.6964C88.4268 14.2807 88.1745 13.9584 87.8396 13.7303C87.5047 13.5023 87.0899 13.3882 86.5961 13.3882C86.1023 13.3882 85.6839 13.504 85.3427 13.7348C85.0015 13.9664 84.7394 14.2798 84.558 14.6757C84.3757 15.0717 84.285 15.5278 84.285 16.0432V17.381C84.285 17.9825 84.3892 18.4952 84.5975 18.9217C84.8058 19.3482 85.0967 19.675 85.4702 19.9021C85.8437 20.1302 86.2747 20.2442 86.7622 20.2442C87.0998 20.2442 87.406 20.1948 87.6789 20.0952C87.9519 19.9955 88.188 19.8509 88.3864 19.6597C88.5848 19.4685 88.733 19.2368 88.83 18.9666L91.6196 19.1551C91.4831 19.8357 91.1985 20.4283 90.7666 20.9338C90.3338 21.4392 89.7763 21.8325 89.0939 22.1126C88.4116 22.3928 87.6214 22.5337 86.7236 22.5337H86.7218Z"
              fill="#E3E9F9"/>
        <path d="M95.5688 15.9149V22.3156H92.5557V11.2389H95.5204V13.2105H95.6272C95.8741 12.5569 96.2674 12.0415 96.807 11.6653C97.3466 11.2891 98.0227 11.1006 98.8352 11.1006C99.5894 11.1006 100.248 11.2694 100.81 11.6061C101.373 11.9428 101.81 12.4222 102.122 13.0426C102.435 13.6639 102.59 14.4065 102.59 15.272V22.3165H99.5768V15.817C99.5768 15.1436 99.4045 14.613 99.0597 14.2269C98.7149 13.8408 98.2408 13.6469 97.6357 13.6469C97.2326 13.6469 96.8752 13.7376 96.5628 13.9189C96.2503 14.1003 96.007 14.3598 95.831 14.6965C95.655 15.0332 95.5679 15.4399 95.5679 15.9149H95.5688Z"
              fill="#E3E9F9"/>
        <path d="M107.809 22.4948C106.977 22.4948 106.226 22.2766 105.556 21.8412C104.887 21.4048 104.357 20.7629 103.966 19.9144C103.577 19.0659 103.381 18.0271 103.381 16.798C103.381 15.5688 103.582 14.4734 103.985 13.6277C104.388 12.7819 104.924 12.1498 105.594 11.7305C106.264 11.3112 106.995 11.1011 107.788 11.1011C108.4 11.1011 108.91 11.2053 109.319 11.4136C109.729 11.6219 110.061 11.8813 110.314 12.1911C110.567 12.5018 110.759 12.8088 110.89 13.1123H110.978V7.55371H114.001V22.3161H111.026V20.5429H110.89C110.753 20.8464 110.555 21.1489 110.294 21.4497C110.034 21.7505 109.701 21.9992 109.295 22.1976C108.888 22.3961 108.393 22.4948 107.807 22.4948H107.809ZM108.755 20.0572C109.243 20.0572 109.658 19.9198 109.999 19.6459C110.34 19.3721 110.6 18.9905 110.779 18.5012C110.958 18.0128 111.048 17.4408 111.048 16.7872C111.048 16.1336 110.96 15.5535 110.785 15.0678C110.609 14.5821 110.349 14.2059 110.004 13.9383C109.66 13.6708 109.244 13.537 108.756 13.537C108.269 13.537 107.846 13.6752 107.508 13.9527C107.17 14.2301 106.913 14.6117 106.738 15.0974C106.562 15.5832 106.475 16.1461 106.475 16.7863C106.475 17.4265 106.563 17.9939 106.738 18.4859C106.914 18.9779 107.172 19.3631 107.514 19.6406C107.855 19.918 108.27 20.0563 108.757 20.0563L108.755 20.0572Z"
              fill="#E3E9F9"/>
    </g>
    <defs>
        <clipPath id="clip0_414_28539">
            <rect width="25.0999" height="31.2889" fill="white" transform="translate(0 0.355469)"/>
        </clipPath>
        <clipPath id="clip1_414_28539">
            <rect width="88" height="23" fill="white" transform="translate(29.0996 4.5)"/>
        </clipPath>
    </defs>
</svg>
