<svg version="1.0" xmlns="http://www.w3.org/2000/svg" width="1080" height="1080" viewBox="0 0 1080 1080"><g transform="matrix(.1 0 0 -.1 0 1080)"><circle cx="5400" cy="5400" r="5400" fill="#00DB7D"/><path d="M2952 7995c-55-24-98-63-128-117-24-44-29-64-29-123 0-66 4-78 77-230 68-143 222-468 397-840 34-71 171-362 304-645 223-474 246-519 294-567 74-76 126-97 238-98 78 0 97 4 145 27 46 23 263 235 1345 1318l1290 1290H4935c-1659-1-1955-3-1983-15m4703 8c-68-15-152-50-207-85-45-29-416-393-1310-1287-686-685-1248-1249-1248-1253 0-5 200-8 443-8 409 0 450 2 521 20 167 42 80-38 1471 1352l1270 1268-460-1c-253-1-469-3-480-6M2924 4896c-57-26-110-84-125-136-6-23-9-464-7-1293l3-1257 1355 1355 1355 1355H2975z"/></g></svg>