<svg width="233" height="24" viewBox="0 0 233 24" fill="none" xmlns="http://www.w3.org/2000/svg">
<g clip-path="url(#clip0_35_2951)">
<path d="M208.382 0H202.701L197.391 24H203.072L208.382 0Z" fill="#C5FF01"/>
<path d="M233.001 0H227.319L222.01 24H227.691L233.001 0Z" fill="#C5FF01"/>
<path d="M214.062 0L222.009 24H216.327L208.381 0H214.062Z" fill="#C5FF01"/>
<path d="M73.5404 18.3151L77.5925 0H71.9115L66.6016 24H96.9015L98.1588 18.3151H73.5404Z" fill="#C5FF01"/>
<path d="M104.609 0L99.2988 24H120.433C125.495 24 130.507 19.8935 131.627 14.8283L127.204 9.14348H132.885C134.002 4.09382 130.817 0.000469474 125.771 0.000469474H104.609V0ZM121.72 18.3147H106.238L107.009 14.8279H125.947L125.941 14.8565C125.518 16.7663 123.628 18.3147 121.72 18.3147ZM127.205 9.14301H108.267L109.032 5.68486H124.514C126.423 5.68486 127.627 7.23319 127.205 9.14301Z" fill="#C5FF01"/>
<path d="M194.991 24L197.02 14.8283L192.597 9.14348H198.278C199.395 4.09382 196.21 0 191.164 0H170.001L164.691 23.9995H170.372L172.402 14.8279H191.339L189.31 23.9995H194.991V24ZM192.597 9.14348H173.659L174.425 5.68533H189.906C191.815 5.68533 193.019 7.23366 192.597 9.14348Z" fill="#C5FF01"/>
<path d="M137.304 0L131.994 24H162.294L167.604 0H137.304ZM157.87 18.3151H138.933L141.727 5.68533H160.665L157.87 18.3151Z" fill="#C5FF01"/>
<path d="M53.7615 0H47.4776L32.6992 24H38.3802L53.7615 0H60.0449L64.2039 24H58.5229L53.7615 0Z" fill="#C5FF01"/>
<path d="M29.9284 0L27.9026 9.15757H8.96509L10.9909 0H5.3099L0 24H5.68147L8.96509 9.15757L13.3883 14.8429H26.6448L24.6185 24H30.2999L35.6094 0H29.9284Z" fill="#C5FF01"/>
</g>
<defs>
<clipPath id="clip0_35_2951">
<rect width="233" height="24" fill="white"/>
</clipPath>
</defs>
</svg>
